/vscmnt/brussel_pixiu_data/_data_brussel/112/vsc11236/PredSimResults/SUBJ07_Dhondt2024_3seg/weighted-LRposFixed/worker_03.mot
version=1
nRows=4
nColumns=124
inDegrees=yes
endheader
                time	         pelvis_tilt	         pelvis_list	     pelvis_rotation	           pelvis_tx	           pelvis_ty	           pelvis_tz	       hip_flexion_r	     hip_adduction_r	      hip_rotation_r	        knee_angle_r	       ankle_angle_r	    subtalar_angle_r	         mtp_angle_r	       hip_flexion_l	     hip_adduction_l	      hip_rotation_l	        knee_angle_l	       ankle_angle_l	    subtalar_angle_l	         mtp_angle_l	    lumbar_extension	      lumbar_bending	     lumbar_rotation	          arm_flex_r	           arm_add_r	           arm_rot_r	        elbow_flex_r	          arm_flex_l	           arm_add_l	           arm_rot_l	        elbow_flex_l	glut_med1_r/activation	glut_med2_r/activation	glut_med3_r/activation	glut_min1_r/activation	glut_min2_r/activation	glut_min3_r/activation	semimem_r/activation	semiten_r/activation	bifemlh_r/activation	bifemsh_r/activation	    sar_r/activation	add_long_r/activation	add_brev_r/activation	add_mag1_r/activation	add_mag2_r/activation	add_mag3_r/activation	    tfl_r/activation	   pect_r/activation	   grac_r/activation	glut_max1_r/activation	glut_max2_r/activation	glut_max3_r/activation	iliacus_r/activation	  psoas_r/activation	quad_fem_r/activation	    gem_r/activation	   peri_r/activation	rect_fem_r/activation	vas_med_r/activation	vas_int_r/activation	vas_lat_r/activation	med_gas_r/activation	lat_gas_r/activation	 soleus_r/activation	tib_post_r/activation	flex_dig_r/activation	flex_hal_r/activation	tib_ant_r/activation	per_brev_r/activation	per_long_r/activation	per_tert_r/activation	ext_dig_r/activation	ext_hal_r/activation	glut_med1_l/activation	glut_med2_l/activation	glut_med3_l/activation	glut_min1_l/activation	glut_min2_l/activation	glut_min3_l/activation	semimem_l/activation	semiten_l/activation	bifemlh_l/activation	bifemsh_l/activation	    sar_l/activation	add_long_l/activation	add_brev_l/activation	add_mag1_l/activation	add_mag2_l/activation	add_mag3_l/activation	    tfl_l/activation	   pect_l/activation	   grac_l/activation	glut_max1_l/activation	glut_max2_l/activation	glut_max3_l/activation	iliacus_l/activation	  psoas_l/activation	quad_fem_l/activation	    gem_l/activation	   peri_l/activation	rect_fem_l/activation	vas_med_l/activation	vas_int_l/activation	vas_lat_l/activation	med_gas_l/activation	lat_gas_l/activation	 soleus_l/activation	tib_post_l/activation	flex_dig_l/activation	flex_hal_l/activation	tib_ant_l/activation	per_brev_l/activation	per_long_l/activation	per_tert_l/activation	ext_dig_l/activation	ext_hal_l/activation	 ercspn_r/activation	 ercspn_l/activation	 intobl_r/activation	 intobl_l/activation	 extobl_r/activation	 extobl_l/activation	
          0.51743295	         -2.92438651	          0.65230418	         -3.09507513	          0.64161686	          0.84556740	          0.00208618	        -17.78636051	          0.62096084	          8.88383714	         -5.63825141	          4.07701800	         12.86217171	         15.31381475	         28.62447795	          2.35143474	          2.02609260	        -11.03664647	          8.70247452	         -2.21846158	          0.23391306	         -6.98994210	          0.30677205	          1.38183348	         23.18856467	        -13.47721779	         19.21707153	         48.85508797	        -26.48948801	        -14.64239239	          3.52049490	         39.58041645	          0.15972508	          0.08356012	          0.05631180	          0.24028321	          0.19902318	          0.13310789	          0.01168494	          0.01000275	          0.01000124	          0.03608939	          0.09096780	          0.01000025	          0.01000007	          0.01000018	          0.01000073	          0.01000063	          0.39223849	          0.01000055	          0.01000053	          0.01617532	          0.01208319	          0.01000452	          0.22817183	          0.44436181	          0.01611794	          0.01611846	          0.05231067	          0.32137449	          0.01000020	          0.01000022	          0.01000020	          0.33363410	          0.37291454	          0.28209732	          0.28255756	          0.36027849	          0.44316738	          0.01608582	          0.09264810	          0.20560289	          0.01428744	          0.01419309	          0.01616851	          0.01374695	          0.01359284	          0.01171857	          0.01000030	          0.01000029	          0.01000046	          0.23729267	          0.05745003	          0.01174060	          0.01000027	          0.01714239	          0.05750507	          0.12502080	          0.09983962	          0.11037203	          0.10320790	          0.01000016	          0.01635659	          0.05830298	          0.01374701	          0.01184021	          0.07551879	          0.01639625	          0.01534299	          0.01649480	          0.01000120	          0.01000037	          0.01000002	          0.08842221	          0.08843446	          0.07504250	          0.01172473	          0.01172467	          0.01172476	          0.01172430	          0.01000047	          0.01061750	          0.28041310	          0.22619531	          0.14519921	          0.08694237	          0.31174748	          0.03567441	          0.00999999	          0.01514629	          0.01000024	          0.03046039	          0.01000003	          0.10572385	
          0.52778161	         -2.91645889	          0.93819705	         -3.27710653	          0.65704703	          0.84492409	          0.00184336	        -17.72996490	          0.28547414	          8.82064486	         -7.49366517	          2.96549128	         13.17727873	         16.45858597	         28.07282265	          2.84763668	          2.05039727	        -11.01298388	          7.81340079	         -2.30933138	          0.23936019	         -6.83867425	         -0.19463764	          1.44070968	         22.84266462	        -13.49614699	         19.07370011	         50.13424947	        -27.35117769	        -14.61588957	          3.41757146	         39.39969030	          0.18893554	          0.07126799	          0.04802804	          0.20493681	          0.16974584	          0.11352703	          0.01000035	          0.01000005	          0.01000002	          0.03078046	          0.07758599	          0.06062355	          0.03239701	          0.01000034	          0.01000052	          0.01000014	          0.33453819	          0.11418458	          0.01015754	          0.01379592	          0.01030578	          0.01000016	          0.19460657	          0.37899386	          0.01374693	          0.01374739	          0.04461550	          0.28438507	          0.01000010	          0.01000014	          0.01000012	          0.28455477	          0.31805686	          0.24589271	          0.26721551	          0.30728034	          0.38028956	          0.01371952	          0.07901910	          0.18516105	          0.01218569	          0.01210522	          0.01379004	          0.01172478	          0.01172473	          0.01000005	          0.01172484	          0.01172481	          0.01172432	          0.20238569	          0.04899885	          0.01001351	          0.01000012	          0.01462074	          0.04904608	          0.10663000	          0.22300875	          0.19376433	          0.12526406	          0.01000078	          0.01877299	          0.04972642	          0.01172479	          0.01009847	          0.06440988	          0.01611797	          0.01578302	          0.18586151	          0.01000012	          0.01000007	          0.01374703	          0.12350199	          0.10591082	          0.09808057	          0.01000000	          0.01000000	          0.00999999	          0.01000000	          0.01000007	          0.01000003	          0.28836358	          0.19292149	          0.13082972	          0.10291227	          0.34212038	          0.03042673	          0.01507082	          0.01291820	          0.02885693	          0.02597951	          0.01255954	          0.09017131	
          0.53813027	         -2.90509184	          1.22937833	         -3.44272749	          0.67267777	          0.84425788	          0.00160845	        -17.55627367	         -0.03656071	          8.74145525	         -9.55149403	          1.66784885	         13.47730952	         17.57418198	         27.49774201	          3.31748330	          2.11218091	        -11.54920853	          6.59303876	         -2.37159875	          0.24139615	         -6.67981212	         -0.70607133	          1.49009800	         22.38266253	        -13.52138232	         18.90485975	         51.34695874	        -27.98628186	        -14.59500112	          3.53567381	         38.78323263	          0.16114215	          0.06078410	          0.04096286	          0.17478957	          0.14477535	          0.09682661	          0.01207334	          0.01000069	          0.01172457	          0.02625250	          0.06617270	          0.08869139	          0.16522178	          0.01172483	          0.01172517	          0.01172609	          0.28532589	          0.09738768	          0.01010453	          0.01176657	          0.01172404	          0.01172453	          0.16597892	          0.32324187	          0.01172476	          0.01172513	          0.03805233	          0.24255055	          0.03407397	          0.02219625	          0.01175528	          0.24269526	          0.27126902	          0.20972060	          0.22790674	          0.26207784	          0.32434701	          0.01170130	          0.06739501	          0.19322105	          0.01039312	          0.01032448	          0.01176146	          0.01000001	          0.01000002	          0.01000022	          0.01000007	          0.01000006	          0.01000004	          0.17261369	          0.04179094	          0.06040442	          0.01000013	          0.01247012	          0.04183121	          0.16635887	          0.19020319	          0.16526071	          0.11562910	          0.01000009	          0.01601545	          0.11052959	          0.01000031	          0.09011546	          0.06237091	          0.01374699	          0.01374695	          0.19057315	          0.01633283	          0.01164639	          0.01172480	          0.10533422	          0.09033081	          0.08365242	          0.01506635	          0.01611814	          0.01385710	          0.01365859	          0.01172493	          0.01380006	          0.24594379	          0.18389473	          0.13959392	          0.08777334	          0.36582657	          0.02595081	          0.03270904	          0.01101786	          0.02609806	          0.02215779	          0.01374707	          0.07690664	
          0.54847893	         -2.89194342	          1.53876327	         -3.58833778	          0.68837412	          0.84362709	          0.00139437	        -17.23510356	         -0.35150123	          8.64237038	        -11.83500742	          0.15304839	         13.73142799	         18.60156606	         26.88187933	          3.74855982	          2.22502444	        -12.20803186	          5.26648279	         -2.41952343	          0.24028917	         -6.52193034	         -1.24038342	          1.52892489	         21.83504677	        -13.54608016	         18.72911096	         52.45687087	        -28.36773874	        -14.58896022	          3.88617305	         37.73629841	          0.18854711	          0.05184244	          0.03493701	          0.25067510	          0.12347816	          0.08258292	          0.01665484	          0.01000010	          0.01000005	          0.02239062	          0.05643837	          0.10112533	          0.14091686	          0.01000014	          0.01000063	          0.01000128	          0.24335338	          0.08306172	          0.01000018	          0.01003574	          0.01000016	          0.01000015	          0.14156256	          0.27569133	          0.01000002	          0.01000034	          0.03245463	          0.23457581	          0.02906154	          0.01893110	          0.01002604	          0.20699351	          0.23136392	          0.17886959	          0.19438046	          0.22352483	          0.27663388	          0.01000000	          0.09495929	          0.17735179	          0.01000005	          0.01000001	          0.01003132	          0.24815758	          0.26535554	          0.25948875	          0.23076647	          0.11423590	          0.08916913	          0.14722131	          0.07572798	          0.05151867	          0.01374711	          0.01063578	          0.03567764	          0.14188666	          0.16222345	          0.14095030	          0.13547233	          0.01000024	          0.01365970	          0.09427072	          0.21649982	          0.15944069	          0.10722886	          0.01172476	          0.01172474	          0.16253887	          0.01393024	          0.01000016	          0.01000003	          0.08983907	          0.07704272	          0.07134676	          0.01285001	          0.01374708	          0.01181865	          0.01164934	          0.01000014	          0.01177001	          0.43229625	          0.31276462	          0.15329794	          0.46019234	          0.48202406	          0.27415720	          0.07393954	          0.03984442	          0.02225889	          0.01889826	          0.01172481	          0.06559327	
